<svg xmlns="http://www.w3.org/2000/svg" width="12" height="13" aria-hidden="true" class="svelte-184rsfv"><path fill="#8F8F8F" d="M6 .624023c2.07255 0 3.90309 1.056387 4.9815 2.658967.0004.00068.0007.00104.001.00139.0204.0256.0384.05239.0538.08008.609.93906.9637 2.05869.9637 3.25956 0 3.29863-2.67564 5.98388-5.97038 5.99998-.0023.0001-.00467.0001-.00704.0001L6 12.624c-3.30851 0-6-2.69147-6-5.99998C0 3.31571 2.69149.624023 6 .624023ZM6 1.78528c-.19589 0-.38911.0117-.57898.03444-.02347.09403-.07206.18258-.14452.25669L3.75157 3.63714c-.11133.11389-.26179.17486-.41541.17486-.06864 0-.13768-.0122-.20436-.03717-.21557-.08124-.36289-.28206-.37528-.51218l-.01208-.2154c-.97216.88564-1.58319 2.16119-1.58319 3.57677 0 .28111.0241.55668.07033.82479l.88751.73657c.00905.00728.0179.01515.02655.02321l.77417.72578c.07022.0657.12293.14791.15342.23937l.3031.90556.4571.2223h1.0279c.15381 0 .30152.0609.41049.1699l.98439.9846c2.54946-.1337 4.58249-2.24993 4.58249-4.83208 0-.75142-.1721-1.46339-.4791-2.09853l-.90244.72067.16739.36604c.03501.07592.05271.15833.05271.24173v.75391c0 .1723-.07651.33574-.20869.44609-.13237.11014-.30703.15637-.47638.12509l-.93663-.17151.47087 1.28104c.05704.15499.04524.32689-.03226.47284l-.82255 1.54831c-.08951.1686-.25534.281-.44193.3039l-.07103.0043c-.21479 0-.41207-.1188-.51277-.3086l-.39358-.74188c-.00668-.01298-.01318-.02616-.01908-.03954l-.32296-.73955-.38807-.53421-1.36777.18706c-.09933.01357-.20063.00137-.29386-.036l-1.17246-.46753c-.22285-.0891-.36801-.30565-.36567-.54561l.01635-1.54421c.00216-.19748.10425-.3802.27143-.48543l1.96532-1.23599c.23504-.14772.54227-.10858.73247.09421l.65104.69333.82275.31667.27123-.09697-1.15122-1.64432c-.12332-.17623-.13925-.40616-.0413-.59754l.55681-1.08868C6.27976 1.7913 6.14057 1.78528 6 1.78528Z"/></svg>